<svg width="1979" height="1496" xmlns="http://www.w3.org/2000/svg" xmlns:xlink="http://www.w3.org/1999/xlink" overflow="hidden"><defs><clipPath id="clip0"><rect x="1730" y="248" width="1979" height="1496"/></clipPath></defs><g clip-path="url(#clip0)" transform="translate(-1730 -248)"><path d="M2221.5 598.004C2221.5 580.052 2236.05 565.5 2254 565.5L2868 565.5C2885.95 565.5 2900.5 580.052 2900.5 598.004L2900.5 1470C2900.5 1487.95 2885.95 1502.5 2868 1502.5L2254 1502.5C2236.05 1502.5 2221.5 1487.95 2221.5 1470Z" stroke="#000000" stroke-width="4.58333" stroke-miterlimit="8" stroke-dasharray="18.3333 13.75" fill="#F2F2F2" fill-rule="evenodd"/><text font-family="Arial,Arial_MSFontService,sans-serif" font-weight="400" font-size="41" transform="matrix(1 0 0 1 3078.04 1710)">Part Query<tspan font-size="41" x="-625.276" y="0">Decoder Embedding</tspan><tspan font-size="46" x="-833.144" y="-508">V</tspan><tspan font-size="46" x="-612.035" y="-505">K</tspan><tspan font-size="46" x="-384.284" y="-507">Q</tspan></text><rect x="2505.5" y="1541.5" width="78" height="78" stroke="#000000" stroke-width="6.875" stroke-miterlimit="8" fill="none"/><rect x="2272.5" y="1213.5" width="78" height="78" stroke="#000000" stroke-width="6.875" stroke-miterlimit="8" fill="#FFFFFF"/><rect x="2505.5" y="1214.5" width="78" height="78" stroke="#000000" stroke-width="6.875" stroke-miterlimit="8" fill="#FFFFFF"/><rect x="2739.5" y="1213.5" width="78" height="78" stroke="#000000" stroke-width="6.875" stroke-miterlimit="8" fill="#FFFFFF"/><path d="M2.29167-3.32249e-06 2.29199 226.006-2.29134 226.006-2.29167 3.32249e-06ZM13.7503 221.423 0.000360892 248.923-13.7497 221.423Z" transform="matrix(1 0 0 -1 2544.5 1541.42)"/><path d="M2547.13 1464.85 2309.21 1464.85 2309.21 1314.42 2313.79 1314.42 2313.79 1462.56 2311.5 1460.27 2547.13 1460.27ZM2297.75 1319 2311.5 1291.5 2325.25 1319Z"/><path d="M2545 1338.5 2545 1403.5M2512.5 1371 2577.5 1371" stroke="#000000" stroke-width="4.58333" stroke-miterlimit="8" fill="none" fill-rule="evenodd"/><path d="M2512.5 1371C2512.5 1353.05 2527.05 1338.5 2545 1338.5 2562.95 1338.5 2577.5 1353.05 2577.5 1371 2577.5 1388.95 2562.95 1403.5 2545 1403.5 2527.05 1403.5 2512.5 1388.95 2512.5 1371Z" stroke="#000000" stroke-width="4.58333" stroke-miterlimit="8" fill="none" fill-rule="evenodd"/><path d="M2779 1338.5 2779 1403.5M2746.5 1371 2811.5 1371" stroke="#000000" stroke-width="4.58333" stroke-miterlimit="8" fill="none" fill-rule="evenodd"/><path d="M2746.5 1371C2746.5 1353.05 2761.05 1338.5 2779 1338.5 2796.95 1338.5 2811.5 1353.05 2811.5 1371 2811.5 1388.95 2796.95 1403.5 2779 1403.5 2761.05 1403.5 2746.5 1388.95 2746.5 1371Z" stroke="#000000" stroke-width="4.58333" stroke-miterlimit="8" fill="none" fill-rule="evenodd"/><path d="M2872.5 1370.5 2872.5 1435.46" stroke="#000000" stroke-width="4.58333" stroke-miterlimit="8" fill="none" fill-rule="evenodd"/><path d="M0 0 77.9528 0.000360892" stroke="#2E75B6" stroke-width="6.875" stroke-miterlimit="8" fill="none" fill-rule="evenodd" transform="matrix(-1 0 0 1 2869.45 1433.5)"/><path d="M2768.5 1433.76C2768.61 1426.3 2773.62 1420.37 2779.7 1420.5 2785.77 1420.64 2790.61 1426.79 2790.5 1434.24 2790.5 1434.26 2790.5 1434.27 2790.5 1434.28" stroke="#2E75B6" stroke-width="6.875" stroke-miterlimit="8" fill="none" fill-rule="evenodd"/><path d="M2768.56 1433.5 2707.5 1433.5" stroke="#2E75B6" stroke-width="6.875" stroke-miterlimit="8" fill="none" fill-rule="evenodd"/><path d="M0 0 0.000360892 64.9606" stroke="#2E75B6" stroke-width="6.875" stroke-miterlimit="8" fill="none" fill-rule="evenodd" transform="matrix(1 0 0 -1 2707.5 1435.46)"/><path d="M9.54861e-06-3.4375 107.005-3.4372 107.005 3.4378-9.54861e-06 3.4375ZM102.421-9.16638 129.921 0.000360892 102.421 9.16695Z" fill="#2E75B6" transform="matrix(-1 0 0 1 2707.42 1371.5)"/><rect x="2274.5" y="1036.5" width="572" height="100" stroke="#000000" stroke-width="4.58333" stroke-miterlimit="8" fill="none"/><text font-family="Arial,Arial_MSFontService,sans-serif" font-weight="400" font-size="41" transform="matrix(1 0 0 1 2435.86 1102)">Self<tspan font-size="41" x="71.0418" y="0">-</tspan>Attention</text><path d="M2.29167-1.0718e-05 2.29192 54.2475-2.29141 54.2476-2.29167 1.0718e-05ZM13.7502 49.6641 0.000360892 77.1642-13.7498 49.6643Z" transform="matrix(1 0 0 -1 2311.5 1211.66)"/><rect x="2505.5" y="779.5" width="78" height="78" stroke="#000000" stroke-width="6.875" stroke-miterlimit="8" fill="#FFFFFF"/><rect x="2505.5" y="857.5" width="78" height="77.9997" stroke="#000000" stroke-width="6.875" stroke-miterlimit="8" fill="#FFFFFF"/><path d="M0-2.29167 416.365-2.29167 416.365 457.891 411.781 457.891 411.781 0 414.073 2.29167 0 2.29167ZM427.823 453.307 414.073 480.807 400.323 453.307Z" transform="matrix(1 0 0 -1 2583.5 1580.31)"/><rect x="2921.5" y="999.5" width="153" height="100" stroke="#000000" stroke-width="4.58333" stroke-miterlimit="8" fill="none"/><text font-family="Arial,Arial_MSFontService,sans-serif" font-weight="400" font-size="37" transform="matrix(1 0 0 1 2961.94 1063)">FFN</text><rect x="3122.5" y="1001.5" width="163" height="98.0003" stroke="#000000" stroke-width="4.58333" stroke-miterlimit="8" fill="none"/><text font-family="Arial,Arial_MSFontService,sans-serif" font-weight="400" font-size="37" transform="matrix(1 0 0 1 3155.27 1042)">Map&amp;<tspan font-size="37" x="10.3125" y="44">Emb</tspan></text><path d="M3200.95 1520.67 3200.11 1122.42 3206.99 1122.41 3207.82 1520.66ZM3189.81 1127.03 3203.5 1099.5 3217.31 1126.97Z" fill="#2E75B6"/><path d="M2975.02 872.019 3020.98 917.981M3020.98 872.019 2975.02 917.981" stroke="#000000" stroke-width="4.58333" stroke-miterlimit="8" fill="none" fill-rule="evenodd"/><path d="M2965.5 895C2965.5 877.051 2980.05 862.5 2998 862.5 3015.95 862.5 3030.5 877.051 3030.5 895 3030.5 912.949 3015.95 927.5 2998 927.5 2980.05 927.5 2965.5 912.949 2965.5 895Z" stroke="#000000" stroke-width="4.58333" stroke-miterlimit="8" fill="none" fill-rule="evenodd"/><path d="M2995.45 999.627 2995.29 950.424 2999.87 950.409 3000.03 999.611ZM2983.84 955.046 2997.5 927.5 3011.34 954.953Z"/><path d="M0-3.4375 110.149-3.4375 110.149 150.788 103.274 150.788 103.274 0 106.711 3.4375 0 3.4375ZM120.461 146.205 106.711 173.705 92.9612 146.205Z" fill="#2E75B6" transform="matrix(-1.83697e-16 -1 -1 1.83697e-16 3204.21 1002.21)"/><path d="M0.0297574-3.43737 124.606-2.35892 124.546 4.51583-0.0297574 3.43737ZM120.112-12.7107 147.492 1.27684 119.874 14.7883Z" fill="#2E75B6" transform="matrix(-1 0 0 1 2964.99 895.5)"/><path d="M2.29162-0.01438 10.0712 1239.76 5.48799 1239.78-2.29162 0.01438ZM21.5006 1235.1 7.92339 1262.68-5.9989 1235.27Z" transform="matrix(1 0 0 -1 1966.5 1539.18)"/><path d="M1970.5 816.208 2248.75 816.209 2248.75 820.792 1970.5 820.792ZM2244.17 804.75 2271.67 818.5 2244.17 832.25Z"/><path d="M2.29167-1.0718e-05 2.29192 54.2475-2.29141 54.2476-2.29167 1.0718e-05ZM13.7502 49.6641 0.000360892 77.1642-13.7498 49.6643Z" transform="matrix(1 0 0 -1 2544.5 1211.66)"/><path d="M2.29167-1.0718e-05 2.29192 54.2475-2.29141 54.2476-2.29167 1.0718e-05ZM13.7502 49.6641 0.000360892 77.1642-13.7498 49.6643Z" transform="matrix(1 0 0 -1 2778.5 1213.66)"/><rect x="2739.5" y="779.5" width="78" height="78" stroke="#000000" stroke-width="6.875" stroke-miterlimit="8" fill="#FFFFFF"/><rect x="2739.5" y="857.5" width="78" height="77.9997" stroke="#000000" stroke-width="6.875" stroke-miterlimit="8" fill="#9DC3E6"/><path d="M0-2.29167 234.379-2.29167 234.379 148.14 229.795 148.14 229.795 0 232.087 2.29167 0 2.29167ZM245.837 143.557 232.087 171.057 218.337 143.557Z" transform="matrix(1 0 0 -1 2546.5 1462.56)"/><path d="M0 0 0.000360892 39.6527" stroke="#000000" stroke-width="4.58333" stroke-miterlimit="8" fill="none" fill-rule="evenodd" transform="matrix(1 0 0 -1 2544.5 1037.15)"/><path d="M2544.5 998.5 2691.86 998.5" stroke="#000000" stroke-width="4.58333" stroke-miterlimit="8" fill="none" fill-rule="evenodd"/><path d="M0-2.29167 223.756-2.29167 223.756 62.0111 221.465 59.7194 282.514 59.7194 282.514 64.3027 219.173 64.3027 219.173 0 221.465 2.29167 0 2.29167ZM277.931 48.2611 305.431 62.0111 277.931 75.7611Z" transform="matrix(1 0 0 -1 2200.5 880.511)"/><path d="M2687.21 997.236 2687.21 816.208 2716.74 816.208 2716.74 820.792 2689.5 820.792 2691.79 818.5 2691.79 997.236ZM2712.15 804.75 2739.65 818.5 2712.15 832.25Z"/><rect x="2272.5" y="779.5" width="78" height="78" stroke="#000000" stroke-width="6.875" stroke-miterlimit="8" fill="#FFFFFF"/><rect x="2080.5" y="1539.5" width="78" height="77.9996" stroke="#000000" stroke-width="6.875" stroke-miterlimit="8" fill="none"/><rect x="1928.5" y="1541.5" width="78" height="78" stroke="#000000" stroke-width="6.875" stroke-miterlimit="8" fill="none"/><path d="M2.29161-0.0164575 11.1783 1237.4 6.59505 1237.43-2.29161 0.0164575ZM22.6033 1232.72 9.05118 1260.32-4.89595 1232.92Z" transform="matrix(1 0 0 -1 2119.5 1538.82)"/><path d="M2124.5 899.208 2483.32 899.209 2483.32 903.792 2124.5 903.792ZM2478.73 887.75 2506.23 901.501 2478.73 915.25Z"/><rect x="2269.5" y="605.5" width="572" height="100" stroke="#000000" stroke-width="4.58333" stroke-miterlimit="8" fill="none"/><text font-family="Arial,Arial_MSFontService,sans-serif" font-weight="400" font-size="41" transform="matrix(1 0 0 1 2412.96 670)">Cross<tspan font-size="41" x="107.708" y="0">-</tspan>Attention<tspan font-size="46" x="-173.447" y="92">V</tspan><tspan font-size="46" x="52.7114" y="92">K</tspan><tspan font-size="46" x="271.499" y="92">Q</tspan></text><path d="M2987.5 1368.27C2987.61 1361.09 2992.39 1355.37 2998.19 1355.5 3003.99 1355.63 3008.6 1361.55 3008.5 1368.73 3008.5 1368.74 3008.5 1368.76 3008.5 1368.77" stroke="#2E75B6" stroke-width="6.875" stroke-miterlimit="8" fill="none" fill-rule="evenodd"/><path d="M7.07757e-06-3.4375 152.365-3.43719 152.365 3.43781-7.07757e-06 3.4375ZM147.781-9.16636 175.281 0.000360892 147.781 9.16697Z" fill="#2E75B6" transform="matrix(-1 0 0 1 2986.78 1368.5)"/><path d="M0 0 197.866 0.510302" stroke="#2E75B6" stroke-width="6.875" stroke-miterlimit="8" fill="none" fill-rule="evenodd" transform="matrix(1 0 0 -1 3008.5 1369.01)"/><path d="M2220.5 404.24C2220.5 396.651 2226.65 390.5 2234.24 390.5L2885.76 390.5C2893.35 390.5 2899.5 396.651 2899.5 404.24L2899.5 483.76C2899.5 491.348 2893.35 497.5 2885.76 497.5L2234.24 497.5C2226.65 497.5 2220.5 491.348 2220.5 483.76Z" stroke="#000000" stroke-width="4.58333" stroke-miterlimit="8" stroke-dasharray="18.3333 13.75" fill="#F2F2F2" fill-rule="evenodd"/><path d="M2558.94 566.032 2558.45 520.44 2563.04 520.391 2563.53 565.983ZM2547.05 525.146 2560.5 497.5 2574.54 524.851Z"/><path d="M3.4375-1.71586e-06 3.43785 700.082-3.43715 700.082-3.4375 1.71586e-06ZM13.7503 695.499 0.000360892 722.999-13.7497 695.499Z" fill="#4472C4" transform="matrix(1 0 0 -1 3203.5 1001.5)"/><text font-family="Arial,Arial_MSFontService,sans-serif" font-weight="400" font-size="46" transform="matrix(1 0 0 1 2222.69 550)">Layer1<tspan font-size="46" x="-1.82544" y="-178">Layer2</tspan></text><rect x="3165.5" y="1541.5" width="78" height="78" stroke="#000000" stroke-width="6.875" stroke-miterlimit="8" fill="#9DC3E6"/><rect x="3275.5" y="1541.5" width="78" height="78" stroke="#000000" stroke-width="6.875" stroke-miterlimit="8" fill="#9DC3E6"/><rect x="3391.5" y="1541.5" width="78" height="78" stroke="#000000" stroke-width="6.875" stroke-miterlimit="8" fill="#F4B183"/><rect x="3057.5" y="1541.5" width="77.9998" height="78" stroke="#000000" stroke-width="6.875" stroke-miterlimit="8" fill="#9DC3E6"/><path d="M3035.5 1539.83C3035.5 1529.16 3044.16 1520.5 3054.83 1520.5L3355.17 1520.5C3365.84 1520.5 3374.5 1529.16 3374.5 1539.83L3374.5 1617.17C3374.5 1627.84 3365.84 1636.5 3355.17 1636.5L3054.83 1636.5C3044.16 1636.5 3035.5 1627.84 3035.5 1617.17Z" stroke="#000000" stroke-width="4.58333" stroke-miterlimit="8" stroke-dasharray="18.3333 13.75" fill="none" fill-rule="evenodd"/><text font-family="Arial,Arial_MSFontService,sans-serif" font-weight="400" font-size="41" transform="matrix(1 0 0 1 3347.32 1709)">Global Query<tspan font-size="41" x="-1583.84" y="-1">Image Embedding</tspan><tspan font-size="41" x="-1241.72" y="1">Pos Embedding</tspan></text><path d="M2.29167-1.0718e-05 2.29192 54.2475-2.29141 54.2476-2.29167 1.0718e-05ZM13.7502 49.6641 0.000360892 77.1642-13.7498 49.6643Z" transform="matrix(1 0 0 -1 2311.5 779.664)"/><path d="M2.29167-1.0718e-05 2.29192 54.2475-2.29141 54.2476-2.29167 1.0718e-05ZM13.7502 49.6641 0.000360892 77.1642-13.7498 49.6643Z" transform="matrix(1 0 0 -1 2543.5 779.664)"/><path d="M2.29167-1.0718e-05 2.29192 54.2475-2.29141 54.2476-2.29167 1.0718e-05ZM13.7502 49.6641 0.000360892 77.1642-13.7498 49.6643Z" transform="matrix(1 0 0 -1 2778.5 779.664)"/><path d="M0 0 646.396 0 646.396 400.225" stroke="#4472C4" stroke-width="6.875" stroke-miterlimit="8" fill="none" fill-rule="evenodd" transform="matrix(-1.83697e-16 -1 -1 1.83697e-16 3430.72 1541.9)"/><path d="M3203.5 1368.5 3430.02 1368.5" stroke="#4472C4" stroke-width="6.875" stroke-miterlimit="8" fill="none" fill-rule="evenodd"/><path d="M3.4375-2.01297e-06 3.43785 593.37-3.43715 593.37-3.4375 2.01297e-06ZM13.7503 588.787 0.000360892 616.287-13.7497 588.787Z" fill="#4472C4" transform="matrix(1 0 0 -1 3430.5 894.787)"/><text font-family="Cambria Math,Cambria Math_MSFontService,sans-serif" font-weight="400" font-size="46" transform="translate(3145.7 955)">ğ‘<tspan font-size="34" x="23.9939" y="9">ğ‘ </tspan></text><path d="M0 0 0.000360892 60.8652" stroke="#000000" stroke-width="4.58333" stroke-miterlimit="8" fill="none" fill-rule="evenodd" transform="matrix(1 0 0 -1 2201.5 879.365)"/></g></svg>